<?xml version="1.0" encoding="UTF-8" standalone="no"?>
<svg
   xmlns:dc="http://purl.org/dc/elements/1.1/"
   xmlns:cc="http://creativecommons.org/ns#"
   xmlns:rdf="http://www.w3.org/1999/02/22-rdf-syntax-ns#"
   xmlns:svg="http://www.w3.org/2000/svg"
   xmlns="http://www.w3.org/2000/svg"
   xmlns:sodipodi="http://sodipodi.sourceforge.net/DTD/sodipodi-0.dtd"
   xmlns:inkscape="http://www.inkscape.org/namespaces/inkscape"
   version="1.1"
   width="1500px"
   height="1500px"
   id="svg22"
   sodipodi:docname="Alpha_king-1.svg"
   inkscape:version="0.92.3 (2405546, 2018-03-11)">
  <metadata
     id="metadata28">
    <rdf:RDF>
      <cc:Work
         rdf:about="">
        <dc:format>image/svg+xml</dc:format>
        <dc:type
           rdf:resource="http://purl.org/dc/dcmitype/StillImage" />
      </cc:Work>
    </rdf:RDF>
  </metadata>
  <defs
     id="defs26" />
  <sodipodi:namedview
     pagecolor="#ffffff"
     bordercolor="#666666"
     borderopacity="1"
     objecttolerance="10"
     gridtolerance="10"
     guidetolerance="10"
     inkscape:pageopacity="0"
     inkscape:pageshadow="2"
     inkscape:window-width="1920"
     inkscape:window-height="1017"
     id="namedview24"
     showgrid="false"
     inkscape:zoom="0.56533333"
     inkscape:cx="970.94577"
     inkscape:cy="750"
     inkscape:window-x="-8"
     inkscape:window-y="-8"
     inkscape:window-maximized="1"
     inkscape:current-layer="svg22" />
  <path
     d="M 705.09358,135.0092 V 54.764147 h 79.40037 V 135.0092 h 90.38127 v 80.24506 h -90.38127 v 129.23676 q -40.54487,-13.51495 -79.40037,0 V 215.25426 H 614.71231 V 135.0092 Z m 39.70019,265.23102 q -39.70019,0 -114.87713,102.20686 -26.18523,-30.40865 -42.23424,-46.45766 78.55568,-118.25587 157.11137,-118.25587 77.711,0 157.11137,118.25587 -16.8937,16.04901 -42.23424,46.45766 Q 783.64927,400.24022 744.79377,400.24022 Z m -377.57409,766.12908 -21.96181,131.7708 122.47929,-70.9535 z M 713.54043,992.36425 Q 712.69575,868.19558 682.70944,760.49828 652.72313,652.80097 614.71231,597.05177 576.7015,522.71951 503.63627,467.815 430.57103,412.91049 361.30688,412.91049 q -87.00253,0 -175.69443,78.55569 -88.691906,78.55568 -88.691906,193.43281 0,92.07064 73.065236,199.3456 73.06523,107.27496 171.04867,188.36471 179.07317,-74.33225 372.50598,-80.24505 z m 31.25334,447.68285 H 258.25534 l 51.52577,-308.3099 Q 35.258556,895.2255 34.413871,679.83088 33.569186,545.526 139.99947,447.96491 q 106.43028,-97.56109 225.53084,-97.56109 65.88541,0 133.88253,39.70018 67.99713,39.70019 120.36758,100.51749 51.52577,62.50667 83.20145,138.95065 31.67568,76.44397 41.8119,127.12505 10.13622,-50.68108 41.38955,-127.12505 31.25334,-76.44398 83.62379,-138.95065 51.52576,-60.8173 119.94524,-100.51749 68.41955,-39.70018 134.30485,-39.70018 118.2559,0 224.6862,97.56109 106.4303,97.56109 106.4303,231.86597 -1.6894,215.39462 -275.3673,451.90632 l 51.5258,308.3099 z m 0,-62.5067 h 413.05083 l -42.2342,-251.716 q -182.45193,-70.9535 -370.81663,-70.9535 -188.36471,0 -370.81662,70.9535 l -42.23423,251.716 z m 377.57413,-211.1711 21.9618,131.7708 -122.4793,-70.9535 z M 776.0471,992.36425 q 193.43282,5.9128 372.506,80.24505 97.1387,-81.08975 170.6263,-188.36471 73.4876,-107.27496 73.4876,-199.3456 0,-114.87713 -89.1143,-193.43281 -89.1142,-78.55569 -175.272,-78.55569 -70.1088,0 -143.17411,54.90451 -73.06525,54.90451 -110.23137,129.23677 -38.8555,55.7492 -68.84181,163.44651 -29.98631,107.6973 -29.98631,231.86597 z m -148.66452,196.81155 119.10056,-70.9536 115.72181,72.6429 -119.10055,70.9535 z"
     id="path20"
     inkscape:connector-curvature="0"
     style="stroke-width:0.84468478" />
</svg>
