<svg height="512pt" viewBox="0 0 512 512" width="512pt" xmlns="http://www.w3.org/2000/svg"><path d="m512 256c0-140.632812-114.640625-256-256-256-141.214844 0-256 115.332031-256 256 0 140.632812 114.640625 256 256 256 140.929688 0 256-114.964844 256-256zm-108.578125 105c-3.515625-9.90625-10.398437-18.226562-19.273437-23.574219 3.730468-21.433593 5.945312-43.6875 6.621093-66.4375h90.71875c-2.125 32.3125-11.074219 62.796875-25.414062 90.011719zm-372.910156-90h63.066406c4.746094 13.382812 15.652344 23.871094 29.292969 28.039062 1.886718 21.480469 5.183594 42.296876 9.761718 61.960938h-76.707031c-14.339843-27.214844-23.289062-57.6875-25.414062-90zm25.414062-120.011719h76.707031c-4.578124 19.667969-7.875 40.492188-9.761718 61.972657-13.640625 4.167968-24.546875 14.65625-29.292969 28.039062h-63.066406c2.125-32.3125 11.074219-62.796875 25.414062-90.011719zm400.148438.011719c14.339843 27.214844 23.289062 57.6875 25.414062 90h-90.71875c-.675781-22.746094-2.890625-44.992188-6.621093-66.425781 8.875-5.347657 15.757812-13.667969 19.273437-23.574219zm-101.339844 180.445312c-16.792969 2.351563-30.636719 13.996094-36.15625 29.554688h-47.578125v-90.011719h89.757812c-.65625 20.71875-2.671874 40.964844-6.023437 60.457031zm-83.734375-90.445312v-90h47.578125c5.519531 15.558594 19.363281 27.203125 36.15625 29.554688 3.351563 19.492187 5.367187 39.730468 6.023437 60.445312zm90-90c-8.269531 0-15-6.730469-15-15s6.730469-15 15-15 15 6.730469 15 15-6.730469 15-15 15zm-42.421875-30h-47.578125v-88.398438c22.460938 7.691407 44.089844 32.261719 60.65625 69.324219-5.875 5.066407-10.433594 11.621094-13.078125 19.074219zm-77.578125-88.476562v88.476562h-68.445312c11.875-33.230469 34.871093-77.238281 68.445312-88.476562zm0 118.476562v90h-62.578125c-4.304687-12.132812-13.671875-21.882812-25.550781-26.707031 2.007812-22.160157 5.597656-43.464844 10.609375-63.292969zm-104.261719 119.964844c-.25 0-.496093-.007813-.746093.007812-.058594 0-.113282.011719-.171876.019532-8.1875-.097657-14.820312-6.78125-14.820312-14.992188s6.632812-14.894531 14.820312-14.992188c.058594.003907.113282.015626.171876.019532.316406.023437.632812.03125.945312.03125.039062 0 .074219-.003906.109375-.003906 7.78125.539062 13.949219 7.023437 13.953125 14.941406v.003906.003906c-.003906 8.019532-6.335938 14.570313-14.261719 14.960938zm16.132813 26.742187c11.878906-4.824219 21.246094-14.574219 25.550781-26.707031h62.578125v90h-77.519531c-5.015625-19.828125-8.601563-41.132812-10.609375-63.292969zm88.128906 93.292969v88.476562c-33.566406-11.238281-56.5625-55.222656-68.445312-88.476562zm30 88.398438v-88.398438h47.578125c2.644531 7.453125 7.203125 14.007812 13.078125 19.074219-16.566406 37.0625-38.195312 61.632812-60.65625 69.324219zm90-88.398438c-8.269531 0-15-6.730469-15-15s6.730469-15 15-15 15 6.730469 15 15-6.730469 15-15 15zm76.140625-270h-33.71875c-6.195313-17.457031-22.867187-30-42.421875-30-.449219 0-.898438.019531-1.34375.035156-8.242188-18.710937-17.710938-34.800781-28.121094-48.039062 42.453125 15.101562 79.109375 42.542968 105.605469 78.003906zm-256.984375-77.894531c-17.675781 22.492187-30.417969 50.441406-39.25 77.894531h-66.046875c26.433594-35.375 62.972656-62.769531 105.296875-77.894531zm-105.296875 347.894531h66.046875c8.832031 27.445312 21.574219 55.398438 39.25 77.894531-42.324219-15.125-78.863281-42.519531-105.296875-77.894531zm256.675781 78.003906c10.410156-13.238281 19.878906-29.328125 28.121094-48.039062.445312.015625.890625.035156 1.34375.035156 19.554688 0 36.226562-12.550781 42.417969-30.011719h33.722656c-26.496094 35.460938-63.152344 62.914063-105.605469 78.015625zm0 0"/></svg>