<svg id="Capa_1" enable-background="new 0 0 512 512" height="512" viewBox="0 0 512 512" width="512" xmlns="http://www.w3.org/2000/svg"><path id="_x3C_Group_x3E__14_" d="m466.007 30h-14.033c-27.759 0-55.561-6.552-80.398-18.949-14.485-7.229-30.699-11.051-46.889-11.051h-87.148c-13.417 0-26.538 2.527-38.996 7.51l-139.265 55.706c-17.182 6.889-28.285 23.295-28.285 41.797 0 24.814 20.2 45.002 45.029 45.002 5.42 0 10.772-.983 15.921-2.923l91.036-26.314c2.465 6.551 6.424 12.377 11.455 17.074l-35.917 90.684c-4.983 12.458-7.51 25.578-7.51 38.996v83.914c0 18.777 3.639 35.485 10.816 49.662 12.729 25.143 19.183 51.973 19.183 79.744v16.148c0 8.284 6.716 15 15 15h90c8.284 0 15-6.716 15-15v-55.137c0-4.251 1.425-7.995 3.813-10.013 16.887-14.275 26.187-34.11 26.187-55.851 0-15.3-4.581-30.021-13.247-42.572-15.662-22.683-16.907-39.123-16.907-58.257 0-6.23.159-12.807.159-19.958 0-19.475-12.382-36.104-29.67-42.402l14.609-56.341c5.211 2.291 10.608 5.36 16.346 9.481 12.798 9.192 27.913 14.05 43.711 14.05 21.741 0 41.575-9.299 55.848-26.185 2.019-2.388 5.763-4.014 10.016-4.015h54.137c8.284 0 15-6.516 15-14.8v-90c-.001-8.284-6.717-15-15.001-15zm-225.692 182.941c-17.098 6.384-29.308 22.877-29.308 42.174v60.885c0 8.284 6.716 15 15 15s15-6.716 15-15v-60.885c0-8.272 6.73-15.002 15.002-15.002 8.413 0 15.202 6.633 15.202 15.1 0 6.958-.159 13.521-.159 19.958 0 22.724 1.499 45.583 22.02 75.303 5.19 7.517 7.934 16.344 7.934 25.526 0 12.763-5.524 24.461-15.554 32.939-9.181 7.76-14.446 19.761-14.446 32.924v40.137h-60v-1.147c0-32.523-7.542-63.912-22.417-93.295-5.031-9.938-7.582-22.087-7.582-36.112v-83.914c0-9.584 1.805-18.956 5.383-27.902l35.547-89.748c1.085.078 2.179.123 3.283.123 3.86 0 17.643-.17 20.787-.17 3.624 0 7.147.043 10.616.212zm210.692-92.941h-39.137c-13.164 0-25.165 5.266-32.926 14.447-8.478 10.03-20.175 15.553-32.937 15.553-9.481 0-18.544-2.91-26.211-8.416-14.193-10.193-27.078-15.636-39.326-18.531-.409-.145-.823-.281-1.25-.392-.799-.207-1.599-.327-2.395-.401-10.56-2.096-20.687-2.224-30.819-2.224-6.7 0-13.573.17-20.787.17-8.467 0-15.1-6.79-15.1-15.202 0-.525.027-1.044.08-1.555.013-.103.024-.207.035-.31.922-7.397 7.247-13.139 14.888-13.139h60.885c8.284 0 15-6.716 15-15s-6.716-15-15-15h-60.885c-19.403 0-35.977 12.344-42.283 29.59l-99.849 28.861c-.46.133-.913.288-1.358.464-10.151 4.02-20.639-3.518-20.639-13.902 0-6.174 3.709-11.65 9.438-13.947l139.254-55.702c8.898-3.559 18.27-5.364 27.854-5.364h87.148c11.564 0 23.145 2.729 33.492 7.894 28.688 14.318 60.765 21.954 92.828 22.104z"/></svg>